Patient4_TMGait_0pt7_01_right_24_EMG.mot
version=1
nRows=16
nColumns=33
inDegrees=no
endheader
time	1LAddLong	2LGlutMax	3LGlutMed	4LIliopsoas	5LSemiMemb	6LBicFemLong	7LRecFem	8LVastMed	9LVastLat	10LGasMed	11LTibAnt	12lTibPost	13LPeroneusLong	14LSol	15LExtDigLong	16LFlexDigLong	17RAddLong	18RGlutMax	19RGlutMed	20RIliopsoas	21RSemiMemb	22RBicFemLong	23RRecFem	24RVastMed	25RVastLat	26RGasMed	27RTibAnt	28RTibPost	29RPeroneusLong	30RSol	31RExtDigLong	32RFlexDigLong
27.875	0.003967	-0.006561	0.047455	0.009918	0.018616	0.17364	0.14053	0.041046	-0.69397	-0.011292	0.038452	0.003815	0.042725	0.084381	-0.32852	-0.002747	0.042267	-0.19379	0.1001	-0.19867	-0.057526	-0.029755	-0.33798	-0.005951	-0.087891	0.002289	0.30991	-0.001984	0.21408	-0.054626	-0.000458	-0.005798
27.876	0.00824	-0.057831	0.032501	0.009766	0.025482	0.076904	0.093842	0.057983	-0.74234	-0.037994	0.029144	0.011139	-0.09079	0.052032	-0.33173	0.014801	0.034027	-0.079041	-0.16205	-0.083923	-0.058746	-0.00885	-0.38116	0.029755	-0.089417	-0.002747	0.18005	-0.002136	-0.19836	0.041809	-0.001068	-0.022125
27.877	0.000153	-0.11704	0.037842	-0.00061	0.024261	0.15625	0.054474	0.040283	-0.50812	-0.040894	-0.098114	0.006256	-0.081177	0.019073	-0.16251	0.001831	-0.003662	-0.075073	-0.16205	0.040741	-0.033569	0.051575	-0.37979	0.081787	-0.064697	0.005188	-0.0354	-0.003052	-0.1297	-0.029907	-0.006714	-0.023804
27.878	-0.002136	-0.083466	0.033722	-0.010529	-0.031433	0.23697	-0.045624	0.014343	-0.23377	-0.013885	-0.11993	0.003204	-0.032043	0.048523	0.009155	-0.002747	-0.036011	-0.090027	-0.24948	0.28946	0.009766	0.075989	-0.40588	0.13016	-0.061798	0.006409	0.16922	-0.001526	0.033722	0.035706	-0.005035	-0.022278
27.879	-0.016479	-0.083313	0.027008	-0.00885	-0.044861	-0.088348	0.021667	-0.025482	-0.11337	0.010986	-0.16907	-0.001678	-0.015717	0.016479	0.06073	0.003815	-0.018616	-0.083923	-0.081787	0.21042	0.068817	0.12253	-0.3624	0.070953	-0.076599	-0.000763	0.17212	-0.000916	0.08255	0.14481	-0.002136	-0.031281
27.88	-0.02594	-0.087738	0.001373	0.018921	-0.053253	-0.20462	-0.031738	-0.01236	-0.23331	0.023193	-0.21637	0.009003	-0.05722	-0.032959	0.018005	0.000153	-0.020447	-0.061646	-0.14938	0.15686	0.10681	0.087738	-0.3891	0.057831	-0.072021	0.001831	0.18677	0.002899	0.13748	0.21225	-0.000153	-0.027161
27.881	-0.047607	-0.1088	-0.011902	0.002136	-0.075684	-0.25299	-0.17593	-0.018616	-0.13031	0.007782	-0.20126	-0.000458	0.14557	-0.020599	-0.021667	-0.009613	-0.053864	-0.019073	-0.016022	0.10651	0.13031	0.049133	-0.36362	0.1059	-0.068665	0.000916	0.14572	-0.004425	-0.000458	0.14984	0.002747	-0.02594
27.882	-0.04364	-0.084991	0.009155	-0.007019	-0.13534	-0.2829	-0.089111	0.006561	-0.13397	0.005798	-0.13351	0.00885	0.27283	0.080109	-0.04364	0.000153	-0.090637	0.007172	0.03952	0.051727	0.13779	0.024719	-0.34485	0.011597	-0.069885	0.000153	0.20737	-0.001678	-0.27756	0.112	-0.003815	-0.019684
27.883	-0.050812	-0.048218	0.037689	-0.005493	-0.16846	-0.38986	0.079803	0.024261	-0.15991	0.00885	-0.023804	0.011444	0.047302	0.011749	-0.037689	0.013275	-0.077515	0.059204	-0.029755	0.10544	0.10925	-0.015564	-0.4039	0.035248	-0.065765	-0.000458	0.29205	-0.001831	-0.22186	0.088501	-0.001678	-0.01297
27.884	-0.053253	-0.061188	0.112	-0.0177	-0.089111	-0.44479	0.1506	-0.009766	-0.080414	0.000458	-0.028534	0.012054	0.040588	-0.038757	0.014496	0.022736	-0.056	-0.054626	-0.13718	0.12344	0.069885	-0.11917	-0.42893	0.048981	-0.05661	-0.007935	0.060577	0.002594	-0.38849	-0.033569	-0.00351	-0.018005
27.885	-0.04364	-0.1326	0.089417	-0.007019	0.011749	-0.35187	0.11231	-0.014343	0.020447	0.020294	-0.088196	0.015411	0.31311	-0.040588	0.30624	0.045929	-0.028992	-0.036774	-0.19745	0.008087	0.059814	-0.27863	-0.41977	0.028381	-0.045471	0.007019	0.069733	-0.000458	-0.159	-0.090637	-0.00351	-0.019531
27.886	-0.031128	-0.12436	0.039825	-0.008087	0.055695	-0.34759	0.12268	-0.019073	0.042877	0.047913	-0.11887	0.020447	0.12192	-0.002441	0.064087	0.049591	-0.022125	-0.027313	-0.21164	0.013428	0.057983	-0.18646	-0.42893	-0.002899	-0.03891	-0.000458	0.02182	-0.000763	0.28275	-0.00473	-0.004578	-0.017853
27.887	-0.024719	-0.10864	-0.009918	-0.000916	0.091248	-0.36468	0.089417	-0.034943	0.15976	0.067139	-0.12238	0.022278	0.090027	-0.06546	-0.030975	0.043945	-0.043182	-0.038605	-0.21927	-0.004883	0.059052	-0.076294	-0.42419	-0.028076	-0.037537	0.003662	0.070496	-0.005341	0.31937	0.054932	-0.006104	-0.016937
27.888	0.020752	-0.10635	-0.04364	0.015564	0.023193	-0.13412	0.028534	-0.044556	0.22568	0.054932	-0.098572	0.027466	0.091095	-0.074921	0.28229	0.039215	-0.014191	0.006561	-0.14267	0.030365	0.08728	-0.003815	-0.42602	0.005798	-0.023651	0.001068	0.13596	-0.002289	0.16083	0.14206	-0.005341	-0.019836
27.889	0.054016	-0.21866	-0.082703	0.007782	0.005951	0.15579	-0.002594	-0.041199	0.17059	0.019989	0.020447	0.036621	0.14648	-0.033264	0.11734	0.041504	0.020142	-0.050659	-0.19821	0.009918	0.10284	0.039215	-0.40344	-0.042267	-0.029297	0.002594	0.1828	-0.003052	-0.9288	0.069885	-0.002594	-0.019379
27.89	0.031433	-0.2533	-0.092163	0.000763	-0.048981	0.29739	0.015411	-0.028687	0.064697	0.033569	0.28854	0.035095	0.057373	0.036316	0.096283	0.036469	0.017548	-0.037842	-0.29495	-0.02121	0.10086	0.08667	-0.38727	-0.007782	-0.017395	-0.011902	0.33081	-0.000305	-1.7134	0.026855	-0.001221	-0.018005
